<svg width="93" height="96" viewBox="0 0 93 96" fill="none" xmlns="http://www.w3.org/2000/svg">
<g clip-path="url(#clip0)">
<rect width="93" height="96" fill="white"/>
<path d="M69 96.5C69 86.5544 66.5768 77.0161 62.2635 69.9835C57.9501 62.9509 52.1 59 46 59C39.9 59 34.0499 62.9509 29.7365 69.9835C25.4232 77.0161 23 86.5544 23 96.5L46 96.5H69Z" fill="#FE9433"/>
<path d="M34 95.5C34 87.4109 32.1036 79.6531 28.7279 73.9332C25.3523 68.2134 20.7739 65 16 65C11.2261 65 6.64773 68.2134 3.27208 73.9332C-0.103576 79.6531 -2 87.4109 -2 95.5L16 95.5H34Z" fill="#FE9433"/>
<path d="M99 95.5C99 86.8805 97.0509 78.614 93.5815 72.519C90.1121 66.4241 85.4065 63 80.5 63C75.5935 63 70.8879 66.4241 67.4185 72.519C63.9491 78.614 62 86.8805 62 95.5L80.5 95.5H99Z" fill="#FE9433"/>
<circle cx="15.5" cy="53.5" r="7.5" fill="#FE9433"/>
<ellipse cx="46.5" cy="48.5" rx="8.5" ry="7.5" fill="#FE9433"/>
<circle cx="80.5" cy="53.5" r="7.5" fill="#FE9433"/>
<path d="M46.0058 71.0861L35.6091 62.0308L56.3937 62.0209L46.0058 71.0861Z" fill="white"/>
<path d="M81.0048 69.0947L72.3408 63.0314L89.663 63.0231L81.0048 69.0947Z" fill="white"/>
<path d="M15.5933 73.0382L6.41971 64.021L24.7608 64.0087L15.5933 73.0382Z" fill="white"/>
<path d="M72 96.5C72 86.5544 69.2607 77.0161 64.3848 69.9835C59.5088 62.9509 52.8956 59 46 59C39.1044 59 32.4912 62.9509 27.6152 69.9835C22.7393 77.0161 20 86.5544 20 96.5L23.0706 96.5C23.0706 87.729 25.4864 79.3171 29.7865 73.1151C34.0866 66.913 39.9187 63.4287 46 63.4287C52.0813 63.4287 57.9134 66.913 62.2135 73.1151C66.5136 79.3172 68.9294 87.729 68.9294 96.5H72Z" fill="white"/>
</g>
<defs>
<clipPath id="clip0">
<rect width="93" height="96" fill="white"/>
</clipPath>
</defs>
</svg>
