<svg width="70" height="99" viewBox="0 0 70 99" fill="none" xmlns="http://www.w3.org/2000/svg">
<rect width="70" height="99" fill="#E5E5E5"/>
<g clip-path="url(#clip0)">
<rect width="70" height="99" fill="white"/>
<rect x="6" y="75" width="9" height="24" fill="#FE9433"/>
<rect x="20" y="53" width="9" height="46" fill="#FE9433"/>
<rect x="34" y="38" width="12" height="61" fill="#FE9433"/>
<path d="M63.4898 -0.174665C63.3933 -0.997456 62.6481 -1.58626 61.8253 -1.48979L48.4172 0.0821967C47.5944 0.178662 47.0056 0.923867 47.102 1.74666C47.1985 2.56945 47.9437 3.15825 48.7665 3.06179L60.6849 1.66446L62.0822 13.5828C62.1787 14.4056 62.9239 14.9944 63.7467 14.898C64.5694 14.8015 65.1583 14.0563 65.0618 13.2335L63.4898 -0.174665ZM-0.823048 81.9299L63.177 0.929939L60.823 -0.929936L-3.17695 80.0701L-0.823048 81.9299Z" fill="#FE9433"/>
<rect x="49" y="21" width="13" height="78" fill="#FE9433"/>
</g>
<defs>
<clipPath id="clip0">
<rect width="70" height="99" fill="white"/>
</clipPath>
</defs>
</svg>
